<?xml version="1.0" encoding="UTF-8" standalone="no"?>
<svg
   xmlns:svg="http://www.w3.org/2000/svg"
   xmlns="http://www.w3.org/2000/svg"
   version="1.1"
   width="824.8645"
   height="230.9883"
   id="svg7946">
  <defs
     id="defs7948" />
  <g
     transform="translate(62.432255,-417.84375)"
     id="layer1">
    <path
       d="M 757.41214,531.95814 C 756.67447,472.22576 708.53889,423.91296 648.87359,422.89745 l 0,30.84816 c 43.03414,1.02508 77.73351,36.32323 77.73351,79.60645 0,43.92029 -35.73405,79.65433 -79.65435,79.65433 -43.92507,0 -79.65432,-35.73404 -79.65432,-79.65433 0,-12.0854 2.70638,-23.54329 7.54437,-33.80844 l 0,-49.87437 c -23.1888,19.9986 -37.97581,49.46242 -38.35421,82.39426 l -0.0144,0 0,2.58187 0.0192,0 c 0.68977,59.9096 49.05527,108.35652 108.93614,109.16605 l 0,0.0193 3.07044,0 0,-0.0193 c 59.83783,-0.8191 108.17459,-49.21813 108.91225,-109.07505 l 0.0192,0 0,-2.77824 -0.0192,0"
       id="path6858"
       style="fill:#f19500;fill-opacity:1;fill-rule:nonzero;stroke:none" />
    <path
       d="m -57.064852,422.85244 4.378136,0 0,14.87322 17.320949,0 0,-14.87322 4.37815,0 0,34.5988 -4.37815,0 0,-15.8456 -17.320949,0 0,15.8456 -4.378136,0 0,-34.5988 z"
       id="path6862"
       style="fill:#000000;fill-opacity:1;fill-rule:nonzero;stroke:none" />
    <path
       d="m -11.036442,454.39707 c 4.1051,0 7.419837,-3.39138 7.419837,-9.45083 0,-6.10258 -3.314737,-9.49397 -7.419837,-9.49397 -4.095525,0 -7.419838,3.39139 -7.419838,9.49397 0,6.05945 3.324313,9.45083 7.419838,9.45083 m 0,-22.58046 c 7.55875,0 11.563262,5.76248 11.563262,13.12963 0,7.31923 -4.004512,13.0865 -11.563262,13.0865 -7.553975,0 -11.563275,-5.76727 -11.563275,-13.0865 0,-7.36715 4.0093,-13.12963 11.563275,-13.12963"
       id="path6866"
       style="fill:#000000;fill-opacity:1;fill-rule:nonzero;stroke:none" />
    <path
       d="m 24.444695,440.44211 c -0.598762,-3.15189 -2.672875,-4.98647 -5.896612,-4.98647 -5.666663,0 -7.419838,4.69427 -7.419838,9.78133 0,4.60808 1.9831,9.15865 6.955213,9.15865 3.779375,0 6.0403,-2.32318 6.54325,-6.10257 l 4.0093,0 c -0.876575,6.10257 -4.51225,9.73826 -10.504663,9.73826 -7.276125,0 -11.151312,-5.33137 -11.151312,-12.79434 0,-7.50606 3.688375,-13.42181 11.242337,-13.42181 5.393625,0 9.723875,2.66329 10.279525,8.62695 l -4.0572,0"
       id="path6870"
       style="fill:#000000;fill-opacity:1;fill-rule:nonzero;stroke:none" />
    <path
       d="m 36.149732,422.85244 3.9135,0 0,13.23022 0.09113,0 c 1.293326,-3.00339 4.655983,-4.26796 7.510873,-4.26796 6.27021,0 8.20542,3.77937 8.20542,9.15864 l 0,16.4779 -3.9183,0 0,-16.9617 c 0,-3.05129 -1.84417,-5.03917 -4.838,-5.03917 -4.746967,0 -7.051005,3.34348 -7.051005,7.85094 l 0,14.14993 -3.9135,0 0,-34.5988"
       id="path6874"
       style="fill:#000000;fill-opacity:1;fill-rule:nonzero;stroke:none" />
    <path
       d="m 67.295835,449.55141 c 0.13891,3.68358 3.18062,4.84756 6.40435,4.84756 2.44294,0 5.76247,-0.58438 5.76247,-3.73147 0,-3.19978 -3.87038,-3.73626 -7.78868,-4.65116 -3.87039,-0.9197 -7.78867,-2.28009 -7.78867,-7.07497 0,-5.03917 4.74697,-7.12286 8.89518,-7.12286 5.25472,0 9.44606,1.74359 9.76699,7.85096 l -3.91829,0 c -0.27304,-3.19978 -2.9459,-4.21528 -5.52776,-4.21528 -2.34714,0 -5.06792,0.67541 -5.06792,3.195 0,2.95547 4.14822,3.43926 7.7839,4.35896 3.91828,0.9197 7.78868,2.28009 7.78868,7.12765 0,5.95407 -5.29784,7.89406 -10.13581,7.89406 -5.34574,0 -9.85802,-2.27529 -10.09273,-8.47845 l 3.91829,0"
       id="path6878"
       style="fill:#000000;fill-opacity:1;fill-rule:nonzero;stroke:none" />
    <path
       d="m 107.24325,440.44211 c -0.59876,-3.15189 -2.66809,-4.98647 -5.89181,-4.98647 -5.671465,0 -7.419845,4.69427 -7.419845,9.78133 0,4.60808 1.9783,9.15865 6.955205,9.15865 3.77939,0 6.03551,-2.32318 6.53846,-6.10257 l 4.0093,0 c -0.87178,6.10257 -4.51225,9.73826 -10.49986,9.73826 -7.280925,0 -11.151315,-5.33137 -11.151315,-12.79434 0,-7.50606 3.68357,-13.42181 11.242325,-13.42181 5.38885,0 9.72388,2.66329 10.27474,8.62695 l -4.0572,0"
       id="path6882"
       style="fill:#000000;fill-opacity:1;fill-rule:nonzero;stroke:none" />
    <path
       d="m 118.95021,422.85244 3.9135,0 0,13.23022 0.0959,0 c 1.28852,-3.00339 4.65117,-4.26796 7.51085,-4.26796 6.26543,0 8.19583,3.77937 8.19583,9.15864 l 0,16.4779 -3.9135,0 0,-16.9617 c 0,-3.05129 -1.84417,-5.03917 -4.83798,-5.03917 -4.74698,0 -7.05101,3.34348 -7.05101,7.85094 l 0,14.14993 -3.91349,0 0,-34.5988"
       id="path6886"
       style="fill:#000000;fill-opacity:1;fill-rule:nonzero;stroke:none" />
    <path
       d="m 167.42012,457.44931 -3.68357,0 0,-3.97099 -0.0911,0 c -1.66216,3.0944 -4.33025,4.55059 -7.74078,4.55059 -6.27022,0 -8.20062,-3.77939 -8.20062,-9.15386 l 0,-16.4731 3.91349,0 0,16.95691 c 0,3.05126 1.84419,5.03916 4.838,5.03916 4.74697,0 7.051,-3.34347 7.051,-7.85095 l 0,-14.14512 3.9135,0 0,25.04736"
       id="path6890"
       style="fill:#000000;fill-opacity:1;fill-rule:nonzero;stroke:none" />
    <path
       d="m 178.64283,457.45026 0,-34.59879"
       id="path6894"
       style="fill:none;stroke:#000000;stroke-width:3.91829038;stroke-linecap:butt;stroke-linejoin:miter;stroke-miterlimit:10;stroke-opacity:1;stroke-dasharray:none" />
    <path
       d="m 206.3573,442.52436 c -0.18201,-3.92309 -2.9938,-7.07496 -6.86899,-7.07496 -4.10031,0 -6.53846,3.24769 -6.81628,7.07496 l 13.68527,0 z m 3.77939,6.97915 c -1.06341,5.52298 -4.84279,8.52635 -10.18374,8.52635 -7.60185,0 -11.19443,-5.52297 -11.42436,-13.17751 0,-7.51565 4.69908,-13.03861 11.19443,-13.03861 8.43055,0 11.01242,8.28683 10.78249,14.3463 l -17.83349,0 c -0.13416,4.35897 2.21302,8.23893 7.41504,8.23893 3.22853,0 5.48465,-1.64777 6.17922,-4.89546 l 3.8704,0"
       id="path6898"
       style="fill:#000000;fill-opacity:1;fill-rule:nonzero;stroke:none" />
    <path
       d="m 241.10267,438.50404 7.9228,0 c 3.22374,0 4.97692,-1.45618 4.97692,-4.94337 0,-3.34347 -1.75318,-4.79487 -4.97692,-4.79487 l -7.9228,0 0,9.73824 z m -7.23782,-15.64922 17.73769,0 c 5.90139,0 9.63286,4.31109 9.63286,9.54665 0,4.06679 -1.57114,7.11808 -5.20682,8.67007 l 0,0.0959 c 3.54946,0.97238 4.56017,4.60327 4.79008,8.09525 0.14369,2.17948 0.0959,6.24626 1.38434,8.18625 l -7.22824,0 c -0.88138,-2.17949 -0.78556,-5.52775 -1.1592,-8.28684 -0.50296,-3.63568 -1.83939,-5.23079 -5.47986,-5.23079 l -7.23303,0 0,13.51763 -7.23782,0 0,-34.594"
       id="path6902"
       style="fill:#000000;fill-opacity:1;fill-rule:nonzero;stroke:none" />
    <path
       d="m 280.08344,452.9428 c 4.46913,0 5.80557,-4.01889 5.80557,-7.99466 0,-4.02367 -1.33644,-8.04734 -5.80557,-8.04734 -4.42605,0 -5.75769,4.02367 -5.75769,8.04734 0,3.97577 1.33164,7.99466 5.75769,7.99466 m 0,-21.22488 c 7.50606,0 12.34405,5.23557 12.34405,13.23022 0,7.94675 -4.83799,13.18231 -12.34405,13.18231 -7.46775,0 -12.30094,-5.23556 -12.30094,-13.18231 0,-7.99465 4.83319,-13.23022 12.30094,-13.23022"
       id="path6906"
       style="fill:#000000;fill-opacity:1;fill-rule:nonzero;stroke:none" />
    <path
       d="m 304.87213,449.31 c 0.0479,3.00339 2.43814,4.21049 5.02478,4.21049 1.88252,0 4.28235,-0.7712 4.28235,-3.19498 0,-2.0837 -2.72077,-2.807 -7.41983,-3.87997 -3.77939,-0.86702 -7.55398,-2.2753 -7.55398,-6.68218 0,-6.39476 5.24994,-8.04735 10.36575,-8.04735 5.20681,0 9.9969,1.84899 10.50465,7.99944 l -6.21754,0 c -0.1868,-2.66806 -2.122,-3.39138 -4.46913,-3.39138 -1.47535,0 -3.64527,0.29222 -3.64527,2.32799 0,2.4669 3.68838,2.807 7.41984,3.72668 3.82729,0.9245 7.55878,2.3759 7.55878,7.03186 0,6.58636 -5.43676,8.71795 -10.8735,8.71795 -5.52778,0 -10.9214,-2.17949 -11.19923,-8.81855 l 6.22233,0"
       id="path6910"
       style="fill:#000000;fill-opacity:1;fill-rule:nonzero;stroke:none" />
    <path
       d="m 343.71494,442.23407 c -0.59877,-3.48717 -2.031,-5.32657 -5.20683,-5.32657 -4.14342,0 -5.34575,3.39139 -5.43675,5.32657 l 10.64358,0 z m -10.64358,4.36378 c 0.18203,4.35897 2.21303,6.34685 5.85348,6.34685 2.62497,0 4.74218,-1.69568 5.15892,-3.24766 l 5.7577,0 c -1.84419,5.91095 -5.7577,8.43053 -11.15132,8.43053 -7.50608,0 -12.15724,-5.42716 -12.15724,-13.18231 0,-7.50606 4.91941,-13.23021 12.15724,-13.23021 8.10961,0 12.0279,7.17555 11.56806,14.8828 l -17.18684,0"
       id="path6914"
       style="fill:#000000;fill-opacity:1;fill-rule:nonzero;stroke:none" />
    <path
       d="m 357.26034,432.39956 6.22232,0 0,3.48718 0.13414,0 c 1.65736,-2.81177 4.51705,-4.16737 7.28572,-4.16737 6.95521,0 8.70359,4.11948 8.70359,10.31784 l 0,15.40971 -6.54326,0 0,-14.14513 c 0,-4.11947 -1.14961,-6.15525 -4.19131,-6.15525 -3.54466,0 -5.06791,2.0837 -5.06791,7.17076 l 0,13.12962 -6.54327,0 0,-25.04736"
       id="path6918"
       style="fill:#000000;fill-opacity:1;fill-rule:nonzero;stroke:none" />
    <path
       d="m 387.71955,422.85244 6.53845,0 0,13.03382 0.13891,0 c 1.66217,-2.80699 4.52185,-4.16737 6.96,-4.16737 6.95521,0 8.70839,4.11948 8.70839,10.31785 l 0,15.4145 -6.54326,0 0,-14.14993 c 0,-4.11946 -1.15442,-6.15526 -4.19132,-6.15526 -3.55424,0 -5.07272,2.08369 -5.07272,7.17077 l 0,13.13442 -6.53845,0 0,-34.5988"
       id="path6922"
       style="fill:#000000;fill-opacity:1;fill-rule:nonzero;stroke:none" />
    <path
       d="m 434.20731,442.23407 c -0.59875,-3.48717 -2.03099,-5.32657 -5.20682,-5.32657 -4.14341,0 -5.34094,3.39139 -5.43675,5.32657 l 10.64357,0 z m -10.64357,4.36378 c 0.18682,4.35897 2.21303,6.34685 5.8487,6.34685 2.62975,0 4.74697,-1.69568 5.16371,-3.24766 l 5.75769,0 c -1.83939,5.91095 -5.75769,8.43053 -11.14653,8.43053 -7.51086,0 -12.16202,-5.42716 -12.16202,-13.18231 0,-7.50606 4.929,-13.23021 12.16202,-13.23021 8.10483,0 12.0231,7.17555 11.56327,14.8828 l -17.18684,0"
       id="path6926"
       style="fill:#000000;fill-opacity:1;fill-rule:nonzero;stroke:none" />
    <path
       d="m 447.94003,432.39764 6.54325,0 0,25.05215 -6.54325,0 0,-25.05215 z m 6.54325,-3.87518 -6.54325,0 0,-5.67146 6.54325,0 0,5.67146 z"
       id="path6928"
       style="fill:#000000;fill-opacity:1;fill-rule:nonzero;stroke:none" />
    <path
       d="m 462.95645,432.39956 6.17921,0 0,3.39139 0.0911,0 c 1.70525,-2.5675 4.1961,-4.07158 7.27612,-4.07158 2.9986,0 5.67148,1.16399 6.96001,4.16737 1.38433,-2.17948 3.87518,-4.16737 7.18993,-4.16737 5.06791,0 8.70835,2.47168 8.70835,8.96704 l 0,16.76051 -6.54324,0 0,-14.19302 c 0,-3.34349 -0.27781,-6.10736 -4.00931,-6.10736 -3.68357,0 -4.37814,3.19498 -4.37814,6.34687 l 0,13.95351 -6.53846,0 0,-14.04932 c 0,-2.90759 0.17723,-6.25106 -3.96619,-6.25106 -1.28852,0 -4.42125,0.87178 -4.42125,5.77205 l 0,14.52833 -6.54805,0 0,-25.04736"
       id="path6932"
       style="fill:#000000;fill-opacity:1;fill-rule:nonzero;stroke:none" />
    <path
       d="m -41.347155,480.13851 c 0,4.99128 -2.883637,7.62583 -7.874891,7.62583 -5.154139,0 -8.210209,-2.35673 -8.210209,-7.62583 l 0,-12.65061 2.668069,0 0,12.65061 c 0,3.49676 2.011845,5.40801 5.54214,5.40801 3.367429,0 5.211604,-1.91125 5.211604,-5.40801 l 0,-12.65061 2.663287,0 0,12.65061"
       id="path6936"
       style="fill:#000000;fill-opacity:1;fill-rule:nonzero;stroke:none" />
    <path
       d="m -31.32293,472.95481 2.236963,0 0,2.27529 0.0575,0 c 1.010712,-1.77713 2.63455,-2.6106 4.70865,-2.6106 3.812925,0 4.986487,2.16512 4.986487,5.24515 l 0,9.43167 -2.380675,0 0,-9.7095 c 0,-1.74837 -1.120887,-2.88362 -2.941112,-2.88362 -2.888413,0 -4.287125,1.91124 -4.287125,4.4931 l 0,8.10002 -2.380675,0 0,-14.34151"
       id="path6940"
       style="fill:#000000;fill-opacity:1;fill-rule:nonzero;stroke:none" />
    <path
       d="m -9.446142,472.9553 2.380687,0 0,14.34152 -2.380687,0 0,-14.34152 z m 2.380687,-2.58186 -2.380687,0 0,-2.88842 2.380687,0 0,2.88842 z"
       id="path6942"
       style="fill:#000000;fill-opacity:1;fill-rule:nonzero;stroke:none" />
    <path
       d="m 9.321895,487.29537 -2.548325,0 -5.379275,-14.34151 2.6585,0 4.0668,11.95125 0.05275,0 3.951813,-11.95125 2.495637,0 -5.297837,14.34151 z"
       id="path6946"
       style="fill:#000000;fill-opacity:1;fill-rule:nonzero;stroke:none" />
    <path
       d="m 33.020383,478.75177 c -0.110125,-2.24655 -1.820238,-4.05241 -4.176963,-4.05241 -2.49085,0 -3.975762,1.85855 -4.148212,4.05241 l 8.325175,0 z m 2.294449,3.99494 c -0.641875,3.15666 -2.941112,4.8811 -6.1888,4.8811 -4.622425,0 -6.8067,-3.16146 -6.950412,-7.54439 0,-4.3015 2.859687,-7.46296 6.8115,-7.46296 5.1254,0 6.696537,4.74219 6.55285,8.21021 l -10.844763,0 c -0.08137,2.49564 1.346025,4.71824 4.512263,4.71824 1.963925,0 3.3339,-0.94365 3.755425,-2.8022 l 2.351937,0"
       id="path6950"
       style="fill:#000000;fill-opacity:1;fill-rule:nonzero;stroke:none" />
    <path
       d="m 44.081645,472.95481 2.24176,0 0,3.02255 0.0527,0 c 1.14963,-2.29925 2.74473,-3.43929 5.32658,-3.35786 l 0,2.50044 c -3.84164,0 -5.24035,2.16032 -5.24035,5.796 l 0,6.38038 -2.38068,0 0,-14.34151"
       id="path6954"
       style="fill:#000000;fill-opacity:1;fill-rule:nonzero;stroke:none" />
    <path
       d="m 61.111345,482.77401 c 0.0861,2.10764 1.93041,2.77346 3.89435,2.77346 1.48491,0 3.50634,-0.33051 3.50634,-2.13636 0,-1.82984 -2.35673,-2.13639 -4.74219,-2.66331 -2.35194,-0.52689 -4.7326,-1.30289 -4.7326,-4.0524 0,-2.87884 2.88843,-4.07636 5.4128,-4.07636 3.1902,0 5.7433,1.00112 5.9349,4.49788 l -2.38065,0 c -0.16767,-1.82981 -1.79151,-2.4142 -3.36265,-2.4142 -1.42745,0 -3.08482,0.388 -3.08482,1.82982 0,1.6909 2.52917,1.97352 4.74218,2.49563 2.37589,0.52692 4.73261,1.3029 4.73261,4.07635 0,3.41534 -3.21895,4.52185 -6.16483,4.52185 -3.25248,0 -5.9924,-1.30291 -6.13612,-4.85236 l 2.38068,0"
       id="path6958"
       style="fill:#000000;fill-opacity:1;fill-rule:nonzero;stroke:none" />
    <path
       d="m 79.965605,472.9553 2.38068,0 0,14.34152 -2.38068,0 0,-14.34152 z m 2.37589,-2.58186 -2.38067,0 0,-2.88842 2.38067,0 0,2.88842 z"
       id="path6960"
       style="fill:#000000;fill-opacity:1;fill-rule:nonzero;stroke:none" />
    <path
       d="m 95.511355,472.95481 2.88364,0 0,2.0789 -2.88364,0 0,8.89998 c 0,1.08735 0.30655,1.28373 1.79149,1.28373 l 1.09215,0 0,2.0789 -1.82025,0 c -2.46689,0 -3.44408,-0.49816 -3.44408,-3.13751 l 0,-9.1251 -2.46687,0 0,-2.0789 2.46687,0 0,-4.3015 2.38069,0 0,4.3015"
       id="path6964"
       style="fill:#000000;fill-opacity:1;fill-rule:nonzero;stroke:none" />
    <path
       d="m 112.87637,489.20806 c -1.09213,2.79741 -2.07409,3.82726 -4.20089,3.82726 -0.56045,0 -1.12089,-0.0528 -1.65258,-0.24907 l 0,-2.16511 c 0.44546,0.14367 0.92448,0.33531 1.3987,0.33531 0.98198,0 1.51366,-0.47423 1.96394,-1.3077 l 0.97717,-2.43815 -5.74331,-14.25531 2.69203,0 4.22963,11.73092 0.0528,0 4.06678,-11.73092 2.51959,0 -6.30377,16.25277"
       id="path6968"
       style="fill:#000000;fill-opacity:1;fill-rule:nonzero;stroke:none" />
    <path
       d="m 147.55421,485.54844 c 2.49563,0 4.50746,-1.94478 4.50746,-5.40802 0,-3.49676 -2.01183,-5.43675 -4.50746,-5.43675 -2.49564,0 -4.50747,1.93999 -4.50747,5.43675 0,3.46324 2.01183,5.40802 4.50747,5.40802 m 0,-12.92845 c 4.59369,0 7.03185,3.30037 7.03185,7.52043 0,4.18654 -2.43816,7.48692 -7.03185,7.48692 -4.5937,0 -7.03186,-3.30038 -7.03186,-7.48692 0,-4.22006 2.43816,-7.52043 7.03186,-7.52043"
       id="path6972"
       style="fill:#000000;fill-opacity:1;fill-rule:nonzero;stroke:none" />
    <path
       d="m 164.52931,475.03324 -2.43813,0 0,-2.0789 2.43813,0 0,-2.13638 c 0,-2.32799 1.39872,-3.54946 4.00452,-3.54946 0.45027,0 1.09213,0.0814 1.54241,0.22035 l 0,2.05495 c -0.42154,-0.13891 -0.92928,-0.1964 -1.34601,-0.1964 -1.14963,0 -1.82023,0.36405 -1.82023,1.60947 l 0,1.99747 2.80219,0 0,2.0789 -2.80219,0 0,12.26261 -2.38069,0 0,-12.26261"
       id="path6976"
       style="fill:#000000;fill-opacity:1;fill-rule:nonzero;stroke:none" />
    <path
       d="m 195.78894,479.11104 6.78276,0 -3.33391,-9.23528 -0.0575,0 -3.39138,9.23528 z m 1.98789,-11.62074 2.94111,0 7.82221,19.807 -2.94591,0 -2.18428,-5.96845 -8.46409,0 -2.23696,5.96845 -2.74951,0 7.81742,-19.807 z"
       id="path6980"
       style="fill:#000000;fill-opacity:1;fill-rule:nonzero;stroke:none" />
    <path
       d="m 223.07374,474.7032 c -3.19499,0 -4.42604,2.71597 -4.42604,5.40801 0,2.82615 1.28852,5.43675 4.56495,5.43675 3.25247,0 4.3446,-2.74951 4.3446,-5.54692 0,-2.69203 -1.39869,-5.29784 -4.48351,-5.29784 m -6.72049,-1.74839 2.37589,0 0,1.93999 0.0575,0 c 0.78556,-1.58073 2.62976,-2.27529 4.62243,-2.27529 4.45478,0 6.67259,3.49676 6.67259,7.54918 0,4.05241 -2.18907,7.45817 -6.61511,7.45817 -1.48494,0 -3.61652,-0.55087 -4.67991,-2.24655 l -0.0575,0 0,7.40546 -2.37589,0 0,-19.83096"
       id="path6984"
       style="fill:#000000;fill-opacity:1;fill-rule:nonzero;stroke:none" />
    <path
       d="m 245.84486,474.7032 c -3.1902,0 -4.42603,2.71597 -4.42603,5.40801 0,2.82615 1.29332,5.43675 4.56493,5.43675 3.25725,0 4.34461,-2.74951 4.34461,-5.54692 0,-2.69203 -1.40348,-5.29784 -4.48352,-5.29784 m -6.7205,-1.74839 2.3759,0 0,1.93999 0.0575,0 c 0.78556,-1.58073 2.63455,-2.27529 4.62723,-2.27529 4.44998,0 6.6678,3.49676 6.6678,7.54918 0,4.05241 -2.18429,7.45817 -6.61032,7.45817 -1.48493,0 -3.62132,-0.55087 -4.68471,-2.24655 l -0.0575,0 0,7.40546 -2.3759,0 0,-19.83096"
       id="path6988"
       style="fill:#000000;fill-opacity:1;fill-rule:nonzero;stroke:none" />
    <path
       d="m 263.1409,487.29395 0,-19.807"
       id="path6992"
       style="fill:none;stroke:#000000;stroke-width:2.38067293;stroke-linecap:butt;stroke-linejoin:miter;stroke-miterlimit:10;stroke-opacity:1;stroke-dasharray:none" />
    <path
       d="m 274.33294,472.9553 2.38066,0 0,14.34152 -2.38066,0 0,-14.34152 z m 2.38066,-2.58186 -2.38066,0 0,-2.88842 2.38066,0 0,2.88842 z"
       id="path6994"
       style="fill:#000000;fill-opacity:1;fill-rule:nonzero;stroke:none" />
    <path
       d="m 296.62935,478.75177 c -0.11012,-2.24655 -1.82024,-4.05241 -4.17696,-4.05241 -2.49085,0 -3.97576,1.85855 -4.14821,4.05241 l 8.32517,0 z m 2.29445,3.99494 c -0.63709,3.15666 -2.94111,4.8811 -6.1888,4.8811 -4.62242,0 -6.8067,-3.16146 -6.95041,-7.54439 0,-4.3015 2.85969,-7.46296 6.8115,-7.46296 5.1254,0 6.69654,4.74219 6.55285,8.21021 l -10.84476,0 c -0.0766,2.49564 1.3508,4.71824 4.51226,4.71824 1.96392,0 3.3339,-0.94365 3.76022,-2.8022 l 2.34714,0"
       id="path6998"
       style="fill:#000000;fill-opacity:1;fill-rule:nonzero;stroke:none" />
    <path
       d="m 313.99436,485.54844 c 3.19499,0 4.43083,-2.71598 4.43083,-5.40802 0,-2.83093 -1.29331,-5.43675 -4.56974,-5.43675 -3.25246,0 -4.3446,2.74473 -4.3446,5.54693 0,2.68724 1.40348,5.29784 4.48351,5.29784 m 6.72528,1.74838 -2.38068,0 0,-1.93998 -0.0526,0 c -0.79037,1.57593 -2.63455,2.2705 -4.62723,2.2705 -4.45478,0 -6.6726,-3.49677 -6.6726,-7.54439 0,-4.05243 2.19387,-7.46296 6.61513,-7.46296 1.48492,0 3.61651,0.55565 4.6847,2.24655 l 0.0526,0 0,-7.37674 2.38068,0 0,19.80702"
       id="path7002"
       style="fill:#000000;fill-opacity:1;fill-rule:nonzero;stroke:none" />
    <path
       d="m 356.46136,473.28725 c -0.30656,-2.82615 -2.21301,-4.04763 -4.95773,-4.04763 -2.24178,0 -4.48354,0.80474 -4.48354,3.3818 0,2.43817 3.195,2.8022 6.41872,3.52552 3.1902,0.71851 6.38519,1.82981 6.38519,5.70976 0,4.22007 -4.17696,5.91097 -7.81741,5.91097 -4.47874,0 -8.2677,-2.16512 -8.2677,-6.98873 l 2.52437,0 c 0,3.32911 2.80221,4.77092 5.82954,4.77092 2.40461,0 5.0679,-0.75204 5.0679,-3.60694 0,-2.72075 -3.19017,-3.1902 -6.38517,-3.88475 -3.19499,-0.69456 -6.41872,-1.60468 -6.41872,-5.24035 0,-4.02367 3.61651,-5.8008 7.25699,-5.8008 4.09072,0 7.19949,1.91604 7.37193,6.27023 l -2.52437,0"
       id="path7006"
       style="fill:#000000;fill-opacity:1;fill-rule:nonzero;stroke:none" />
    <path
       d="m 378.64616,477.55905 c -0.36405,-1.80108 -1.62385,-2.85969 -3.58777,-2.85969 -3.44409,0 -4.51226,2.69204 -4.51226,5.60441 0,2.63454 1.20708,5.24514 4.23443,5.24514 2.29444,0 3.6692,-1.33164 3.97578,-3.49676 l 2.43815,0 c -0.5317,3.49676 -2.74473,5.57566 -6.38999,5.57566 -4.42604,0 -6.77319,-3.05129 -6.77319,-7.32404 0,-4.29671 2.23699,-7.68331 6.83067,-7.68331 3.28121,0 5.91576,1.52806 6.25108,4.93859 l -2.4669,0"
       id="path7010"
       style="fill:#000000;fill-opacity:1;fill-rule:nonzero;stroke:none" />
    <path
       d="m 390.15241,472.9553 2.38068,0 0,14.34152 -2.38068,0 0,-14.34152 z m 2.38068,-2.58186 -2.38068,0 0,-2.88842 2.38068,0 0,2.88842 z"
       id="path7012"
       style="fill:#000000;fill-opacity:1;fill-rule:nonzero;stroke:none" />
    <path
       d="m 412.45363,478.75177 c -0.11013,-2.24655 -1.82023,-4.05241 -4.17695,-4.05241 -2.49087,0 -3.98058,1.85855 -4.14823,4.05241 l 8.32518,0 z m 2.29445,3.99494 c -0.64188,3.15666 -2.94112,4.8811 -6.1888,4.8811 -4.62244,0 -6.81151,-3.16146 -6.94563,-7.54439 0,-4.3015 2.85489,-7.46296 6.8067,-7.46296 5.13019,0 6.69655,4.74219 6.55285,8.21021 l -10.84476,0 c -0.0814,2.49564 1.34603,4.71824 4.51705,4.71824 1.96394,0 3.32911,-0.94365 3.74585,-2.8022 l 2.35673,0"
       id="path7016"
       style="fill:#000000;fill-opacity:1;fill-rule:nonzero;stroke:none" />
    <path
       d="m 423.60206,472.95481 2.23697,0 0,2.27529 0.0575,0 c 1.01071,-1.77713 2.63933,-2.6106 4.70865,-2.6106 3.80811,0 4.98648,2.16512 4.98648,5.24515 l 0,9.43167 -2.38067,0 0,-9.7095 c 0,-1.74837 -1.12088,-2.88362 -2.94591,-2.88362 -2.88362,0 -4.28713,1.91124 -4.28713,4.4931 l 0,8.10002 -2.37587,0 0,-14.34151"
       id="path7020"
       style="fill:#000000;fill-opacity:1;fill-rule:nonzero;stroke:none" />
    <path
       d="m 455.17065,477.55905 c -0.36883,-1.80108 -1.62385,-2.85969 -3.58776,-2.85969 -3.44409,0 -4.51227,2.69204 -4.51227,5.60441 0,2.63454 1.20709,5.24514 4.23443,5.24514 2.29444,0 3.6692,-1.33164 3.97579,-3.49676 l 2.43814,0 c -0.5317,3.49676 -2.74473,5.57566 -6.38999,5.57566 -4.42604,0 -6.77318,-3.05129 -6.77318,-7.32404 0,-4.29671 2.23698,-7.68331 6.83067,-7.68331 3.28601,0 5.91576,1.52806 6.25107,4.93859 l -2.4669,0"
       id="path7024"
       style="fill:#000000;fill-opacity:1;fill-rule:nonzero;stroke:none" />
    <path
       d="m 476.59958,478.75177 c -0.11488,-2.24655 -1.82023,-4.05241 -4.17696,-4.05241 -2.49084,0 -3.97576,1.85855 -4.14343,4.05241 l 8.32039,0 z m 2.29444,3.99494 c -0.63708,3.15666 -2.9411,4.8811 -6.18878,4.8811 -4.62243,0 -6.8067,-3.16146 -6.94562,-7.54439 0,-4.3015 2.85488,-7.46296 6.80671,-7.46296 5.12539,0 6.69653,4.74219 6.55283,8.21021 l -10.83997,0 c -0.0814,2.49564 1.34602,4.71824 4.50748,4.71824 1.96873,0 3.33389,-0.94365 3.75542,-2.8022 l 2.35193,0"
       id="path7028"
       style="fill:#000000;fill-opacity:1;fill-rule:nonzero;stroke:none" />
    <path
       d="m 489.2023,482.77401 c 0.0861,2.10764 1.93041,2.77346 3.88955,2.77346 1.48492,0 3.50634,-0.33051 3.50634,-2.13636 0,-1.82984 -2.35671,-2.13639 -4.73261,-2.66331 -2.35672,-0.52689 -4.73739,-1.30289 -4.73739,-4.0524 0,-2.87884 2.88843,-4.07636 5.40801,-4.07636 3.195,0 5.73852,1.00112 5.9397,4.49788 l -2.38066,0 c -0.17245,-1.82981 -1.7963,-2.4142 -3.36265,-2.4142 -1.43224,0 -3.08483,0.388 -3.08483,1.82982 0,1.6909 2.51959,1.97352 4.73741,2.49563 2.38067,0.52692 4.73259,1.3029 4.73259,4.07635 0,3.41534 -3.22371,4.52185 -6.16483,4.52185 -3.25248,0 -5.9924,-1.30291 -6.13131,-4.85236 l 2.38067,0"
       id="path7032"
       style="fill:#000000;fill-opacity:1;fill-rule:nonzero;stroke:none" />
    <path
       d="m 644.45809,530.85785 -106.73749,0 0,-106.74228 106.73749,0 0,106.74228 z m -107.98292,1.24543 109.22834,0 0,-109.23312 -109.22834,0 0,109.23312 z"
       id="path7034"
       style="fill:#000000;fill-opacity:1;fill-rule:nonzero;stroke:none" />
    <path
       d="m 756.18684,530.85785 -106.73748,0 0,-106.74228 106.73748,0 0,106.74228 z m -107.9877,1.24543 109.23312,0 0,-109.23312 -109.23312,0 0,109.23312 z"
       id="path7036"
       style="fill:#000000;fill-opacity:1;fill-rule:nonzero;stroke:none" />
    <path
       d="m 644.45809,642.58181 -106.73749,0 0,-106.73747 106.73749,0 0,106.73747 z m -107.98292,1.25023 109.22834,0 0,-109.22834 -109.22834,0 0,109.22834 z"
       id="path7038"
       style="fill:#000000;fill-opacity:1;fill-rule:nonzero;stroke:none" />
    <path
       d="m 756.18684,642.58181 -106.73748,0 0,-106.73747 106.73748,0 0,106.73747 z m -107.9877,1.25023 109.23312,0 0,-109.22834 -109.23312,0 0,109.22834 z"
       id="path7040"
       style="fill:#000000;fill-opacity:1;fill-rule:nonzero;stroke:none" />
    <path
       d="m 645.12246,422.89602 c -14.02058,0.22514 -27.38971,3.0896 -39.67149,8.07608 l 0,-7.52521 -30.79067,0 0,107.9398 30.79067,0 0,-65.95949 c 11.61117,-7.11806 25.16233,-11.35729 39.67149,-11.68781 l 0,-30.84337"
       id="path7044"
       style="fill:#000000;fill-opacity:1;fill-rule:nonzero;stroke:none" />
  </g>
</svg>
